<mxfile host="app.diagrams.net" modified="2024-06-05T08:59:31.221Z" agent="Mozilla/5.0 (Windows NT 10.0; Win64; x64) AppleWebKit/537.36 (KHTML, like Gecko) Chrome/124.0.0.0 Safari/537.36 Edg/124.0.0.0" version="24.4.10" etag="Zc6PTUrPMRnG121TYBYa" type="github">
  <diagram name="第 1 页" id="7-fsuWzGS-lq4r6OguHs">
    <mxGraphModel>
      <root>
        <mxCell id="0" />
        <mxCell id="1" parent="0" />
      </root>
    </mxGraphModel>
  </diagram>
</mxfile>
